<svg id="Layer_1" data-name="Layer 1" xmlns="http://www.w3.org/2000/svg" viewBox="0 0 105 24"><defs><style>.cls-1{fill:#ec1c24;}.cls-2{fill:#fff;}</style></defs><path class="cls-1" d="M-.7-.24H105.7a0,0,0,0,1,0,0V24A2.06,2.06,0,0,1,103.64,26H1.36A2.06,2.06,0,0,1-.7,24V-.24a0,0,0,0,1,0,0Z"/><path class="cls-2" d="M35.41,15.23a5,5,0,0,0-1.69-1.32,4.82,4.82,0,0,0-2.1-.48,4.87,4.87,0,0,0-1.3.19,4.79,4.79,0,0,0-2.67,1.89A4.86,4.86,0,0,0,27,16.84a5.14,5.14,0,0,0-.22,1.44,4.87,4.87,0,0,0,.39,1.91,4.89,4.89,0,0,0,2.69,2.63,4.9,4.9,0,0,0,1.76.33,5,5,0,0,0,2.3-.56,4.65,4.65,0,0,0,1.81-1.66L34,20.79a3.57,3.57,0,0,1-.66,1.5,1.58,1.58,0,0,1-.82.56l-.32,0a1.45,1.45,0,0,1-.76-.21,2.82,2.82,0,0,1-.65-.5,4.83,4.83,0,0,1-.5-.64,7.13,7.13,0,0,1-.91-2.09,8.82,8.82,0,0,1-.3-2.25h7.27A4.66,4.66,0,0,0,35.41,15.23ZM29.11,17a5.58,5.58,0,0,1,.31-1.77,3,3,0,0,1,.6-1,1.47,1.47,0,0,1,.6-.41l.42-.08a1.85,1.85,0,0,1,1.13.45,4.33,4.33,0,0,1,1,1.27A7.82,7.82,0,0,1,33.83,17Z"/><path class="cls-2" d="M44.74,22.59a2.33,2.33,0,0,1-.27-1.24V16.24a.49.49,0,0,1,0-.12,2.74,2.74,0,0,0-.2-.73,1.89,1.89,0,0,0-.21-.39l0-.07a2.31,2.31,0,0,0-.31-.39l-.05,0-.23-.21a3.6,3.6,0,0,0-1.05-.6l-.06,0A3.89,3.89,0,0,0,41,13.45,3.7,3.7,0,0,0,39,14a3,3,0,0,0-1.26,1.48l1.32.5,0-.28a5.06,5.06,0,0,1,.17-.67,3.57,3.57,0,0,1,.33-.75,1.35,1.35,0,0,1,.54-.52,3.12,3.12,0,0,1,.52-.08,2.62,2.62,0,0,1,.91.13,1,1,0,0,1,.53.51,2.63,2.63,0,0,1,.17,1.1v1.68a11.61,11.61,0,0,0-2.41.54,6.22,6.22,0,0,0-2.06,1.07,2.84,2.84,0,0,0-1.07,2c0,.11,0,.2,0,.3a1.92,1.92,0,0,0,.7,1.63,2.88,2.88,0,0,0,1.74.46,7.45,7.45,0,0,0,1.46-.16,11.89,11.89,0,0,0,1.85-.51,1.38,1.38,0,0,0,.48.48,1.33,1.33,0,0,0,.68.18h1.57V23l-.08,0A.8.8,0,0,1,44.74,22.59Zm-3.65,0a2.8,2.8,0,0,1-.48.05c-.88,0-1.36-.52-1.43-1.55,0-.14,0-.28,0-.41a3.46,3.46,0,0,1,.7-2.34A2.33,2.33,0,0,1,41,17.56c.53-.11,1-.19,1.3-.23V21.7a1.34,1.34,0,0,0,.1.49A10.69,10.69,0,0,1,41.09,22.58Z"/><path class="cls-2" d="M50.92,13.73q-1.48.88-2.22,4.21V13.46l0,.07a1.32,1.32,0,0,1-.54.42,4.23,4.23,0,0,1-1.57.36H46v.1h0a.34.34,0,0,1,.19.13,2.48,2.48,0,0,1,.34,1.56v5.51a2,2,0,0,1-.3,1,.71.71,0,0,1-.39.31l-.07,0v.06h3.68V23l-.07,0a.71.71,0,0,1-.39-.31,2.07,2.07,0,0,1-.31-1V19.26a14.12,14.12,0,0,1,.57-2.59,8.24,8.24,0,0,1,.67-1.58,1.37,1.37,0,0,1,.59-.52,1.51,1.51,0,0,1,.51-.11l.22,0a2.3,2.3,0,0,1,.61.2,2.75,2.75,0,0,1,.45.28l.17.13.58-1.39a2.59,2.59,0,0,0-1.1-.26A2.08,2.08,0,0,0,50.92,13.73Z"/><rect class="cls-2" x="61.81" y="9.89" width="2" height="2" transform="translate(10.69 47.59) rotate(-44.99)"/><path class="cls-2" d="M64.58,22.9a.91.91,0,0,1-.22-.22,1.66,1.66,0,0,1-.19-.4,3.23,3.23,0,0,1-.11-.65V13.47l0,.08a.85.85,0,0,1-.17.19,2.2,2.2,0,0,1-.37.23,3.63,3.63,0,0,1-.62.22,5.45,5.45,0,0,1-1,.13l-.56,0v.09h0l.08,0a.5.5,0,0,1,.11.1.93.93,0,0,1,.12.18,1.37,1.37,0,0,1,.11.31,2.29,2.29,0,0,1,.08.45,5.53,5.53,0,0,1,0,.63v5.5a2.56,2.56,0,0,1-.11.64,1.36,1.36,0,0,1-.19.4.74.74,0,0,1-.21.22.85.85,0,0,1-.18.1h-.07v.07h3.68V23h-.07Z"/><path class="cls-2" d="M83.17,22.92A1.13,1.13,0,0,1,83,22.7a1.36,1.36,0,0,1-.19-.4,2.23,2.23,0,0,1-.11-.64V17.05a3.47,3.47,0,0,0-2.09-3.18l-.07,0a4.2,4.2,0,0,0-1.55-.33h0a4.82,4.82,0,0,0-3.07,1.13,5.38,5.38,0,0,0-.76.75,3.37,3.37,0,0,0-1.66-1.52,4.45,4.45,0,0,0-1.63-.36h0a4.82,4.82,0,0,0-3.07,1.13l-.36.32V13.5l0,.08a1,1,0,0,1-.18.19,1.85,1.85,0,0,1-.37.23,3.63,3.63,0,0,1-.62.22,5.32,5.32,0,0,1-.94.13l-.56,0v.09h0l.08,0a.47.47,0,0,1,.11.1.7.7,0,0,1,.12.18,1.46,1.46,0,0,1,.11.3,4.12,4.12,0,0,1,.08.45,5.78,5.78,0,0,1,0,.63v5.51a3.24,3.24,0,0,1-.11.64,1.66,1.66,0,0,1-.19.4,1.13,1.13,0,0,1-.22.22.56.56,0,0,1-.17.09l-.08,0v.07h3.69V23L69,23a.69.69,0,0,1-.39-.31,2,2,0,0,1-.31-1.05V15.28a5,5,0,0,1,2.57-1.47,2.91,2.91,0,0,1,.57-.06,1.72,1.72,0,0,1,.89.22,1.65,1.65,0,0,1,.62.69,2.85,2.85,0,0,1,.3.86,3.78,3.78,0,0,1,.09.75v5.39a3.24,3.24,0,0,1-.11.64,1.35,1.35,0,0,1-.2.4.89.89,0,0,1-.21.22.56.56,0,0,1-.17.09l-.07,0v.07h3.68V23l-.07,0a.5.5,0,0,1-.18-.09.89.89,0,0,1-.21-.22,1.65,1.65,0,0,1-.2-.4,3.24,3.24,0,0,1-.11-.64V17.05a3.36,3.36,0,0,0-.31-1.44A4.94,4.94,0,0,1,78,13.81h0a2.91,2.91,0,0,1,.57-.06,1.66,1.66,0,0,1,.88.22,1.61,1.61,0,0,1,.63.69,3.15,3.15,0,0,1,.3.86,4.57,4.57,0,0,1,.08.75v5.39a2.65,2.65,0,0,1-.11.64,1.36,1.36,0,0,1-.19.4.89.89,0,0,1-.21.22.5.5,0,0,1-.18.09l-.07,0v.07h3.68V23l-.07,0A.56.56,0,0,1,83.17,22.92Z"/><path class="cls-2" d="M92.43,23a.8.8,0,0,1-.42-.37,2.33,2.33,0,0,1-.27-1.24V16.24a.49.49,0,0,1,0-.12,2.74,2.74,0,0,0-.2-.73,1.89,1.89,0,0,0-.21-.39l0-.07a2.31,2.31,0,0,0-.31-.39l0,0-.23-.21a3.6,3.6,0,0,0-1-.6l-.06,0a3.89,3.89,0,0,0-1.27-.21,3.76,3.76,0,0,0-2,.56,3,3,0,0,0-1.25,1.48l1.31.5,0-.28a5.06,5.06,0,0,1,.17-.67,3.57,3.57,0,0,1,.33-.75,1.35,1.35,0,0,1,.54-.52,3.12,3.12,0,0,1,.52-.08,2.52,2.52,0,0,1,.9.13,1,1,0,0,1,.54.51,2.81,2.81,0,0,1,.17,1.1v1.68a11.61,11.61,0,0,0-2.41.54,6.22,6.22,0,0,0-2.06,1.07,2.8,2.8,0,0,0-1.07,2c0,.11,0,.2,0,.3a1.92,1.92,0,0,0,.7,1.63,2.88,2.88,0,0,0,1.74.46,7.45,7.45,0,0,0,1.46-.16,11.89,11.89,0,0,0,1.85-.51,1.38,1.38,0,0,0,.48.48,1.32,1.32,0,0,0,.67.18h1.58V23Zm-4.07-.38a2.8,2.8,0,0,1-.48.05c-.88,0-1.36-.52-1.43-1.55,0-.14,0-.28,0-.41a3.46,3.46,0,0,1,.7-2.34,2.33,2.33,0,0,1,1.14-.77c.53-.11,1-.19,1.3-.23V21.7a1.16,1.16,0,0,0,.1.49A10.69,10.69,0,0,1,88.36,22.58Z"/><path class="cls-2" d="M60.91,14v-.86H57.38V7.77a2.06,2.06,0,0,1-1,.44l-.54.09a3.5,3.5,0,0,0-.45.07h-.08l0,0-.07,0V9c0,1.79,0,3.57,0,4.13h-1.6V14h1.6v5.75c0,.09,0,.19,0,.28s0,.2,0,.27A3.25,3.25,0,0,0,55.9,22a3.16,3.16,0,0,0,1.48,1,3.12,3.12,0,0,0,.88.13,3,3,0,0,0,1.49-.39L59,21.85V22c0,.06,0,.14-.07.24a1.46,1.46,0,0,1-.16.3.88.88,0,0,1-.26.25.69.69,0,0,1-.41.1c-.3-.06-.52-.56-.62-1.52-.05-.55-.08-1.08-.08-1.58V14Z"/><path class="cls-2" d="M55.16,8.42l-.33.11-.1,0-.12,0-.32.12L54,8.84l-.1,0L53.51,9c-1,.36-1.9.71-2.84,1a17.22,17.22,0,0,1-9.9-.29,21.11,21.11,0,0,0,2.11-1.36,10.27,10.27,0,0,0,1.87-1.88,4,4,0,0,0,.89-2.37V4A3.41,3.41,0,0,0,45,2a3.19,3.19,0,0,0-3.54-.94,3.22,3.22,0,0,0-1.4,1,3.42,3.42,0,0,0-1.41-1A3.25,3.25,0,0,0,36.67,1,3,3,0,0,0,35.1,2a3.27,3.27,0,0,0-.67,2v.07a4.16,4.16,0,0,0,.88,2.39A10.78,10.78,0,0,0,37.2,8.31a17,17,0,0,0,2.21,1.41,7.37,7.37,0,0,1-2.09.53,10,10,0,0,1-2.83-.1,9.63,9.63,0,0,1-1-.19l-1-.27c-.31-.1-.62-.2-.94-.32L30.68,9l-.85-.35-.08,0c-.29-.11-1.93-.82-2-.85l-.33-.15c-.25-.1-.5-.21-.74-.33a1.21,1.21,0,0,0-.25-.08,2.17,2.17,0,0,0-.36,0H22.76v.08h.07a.9.9,0,0,1,.4.33,2.07,2.07,0,0,1,.29,1v6.07H15.4V8.65a2,2,0,0,1,.31-1,.74.74,0,0,1,.39-.32h.07V7.21H12.49v.08h.07a.83.83,0,0,1,.41.33,2.19,2.19,0,0,1,.28,1v13a2,2,0,0,1-.3,1,.77.77,0,0,1-.4.32h-.06v.08h3.68V23H16.1a.75.75,0,0,1-.39-.32,2,2,0,0,1-.31-1v-6h8.12v6a2,2,0,0,1-.3,1,.77.77,0,0,1-.4.32h-.06v.08h3.68V23h-.07a.39.39,0,0,1-.17-.1.66.66,0,0,1-.22-.22,1.21,1.21,0,0,1-.2-.41,2.39,2.39,0,0,1-.11-.63v-13A2.56,2.56,0,0,1,25.78,8l.08-.21A.36.36,0,0,1,26,7.65a.36.36,0,0,1,.2,0,.82.82,0,0,1,.23.11l.4.2.38.19.33.17.15.07.1,0,.36.15.88.38.05,0,.85.36.07,0,.94.38.95.34c.31.11.64.21,1,.3l1,.25.58.11a9.73,9.73,0,0,0,3,.08A8,8,0,0,0,40.09,10a17.8,17.8,0,0,0,6.14,1.08,17,17,0,0,0,4.57-.61c1-.25,1.87-.58,2.77-.91l.14-.05,1-.38L55.2,9V8.42l.07,0ZM40,3.07s0,0,0,0a1.45,1.45,0,0,1,.2.46.22.22,0,0,1-.06.15.24.24,0,0,1-.4-.16A1.31,1.31,0,0,1,40,3.07Zm0,6.34c-.32-.17-.63-.34-.94-.53l-.9-.57-.6-.43a10.14,10.14,0,0,1-1-.86,5.4,5.4,0,0,1-.41-.42l-.34-.42a3.39,3.39,0,0,1-.75-2V4.12a2.74,2.74,0,0,1,.31-1.27,2.44,2.44,0,0,1,1.06-1,2.6,2.6,0,0,1,.42-.15l.09,0,.24,0a1.51,1.51,0,0,1,.3,0,3.27,3.27,0,0,1,.75.09l.18.06a2.52,2.52,0,0,1,.29.12l.14.09a2.33,2.33,0,0,1,.61.51,2.11,2.11,0,0,1,.19.23l-.31.51,0,.08a.53.53,0,0,0-.06.14.59.59,0,0,0,0,.23,1.65,1.65,0,0,0,0,.21l0,0a.76.76,0,0,0,.09.18l.09.11a.73.73,0,0,0,.55.23.78.78,0,0,0,.77-.78,1.71,1.71,0,0,0-.32-.77l-.06-.09-.07-.09a2.51,2.51,0,0,1,.19-.24A2.67,2.67,0,0,1,41.2,2a2.84,2.84,0,0,1,.39-.18l.23-.07a3.25,3.25,0,0,1,.43-.08,3.86,3.86,0,0,1,.6,0l.32.06.13.06a.9.9,0,0,1,.23.08,2.36,2.36,0,0,1,.64.42l.07.08.06,0,.11.13a2.25,2.25,0,0,1,.39.73,2.45,2.45,0,0,1,.09.32,2.26,2.26,0,0,1,.06.55v.07a3.2,3.2,0,0,1-.1.73,3.39,3.39,0,0,1-.46,1,2,2,0,0,1-.18.26,8.84,8.84,0,0,1-1.74,1.71A17.24,17.24,0,0,1,40.05,9.41Z"/><path class="cls-2" d="M89.36,10.07h-.48V11.4h-.2V10.07H88.2V9.91h1.16Z"/><path class="cls-2" d="M89.83,9.91l.49,1.22.49-1.22h.25V11.4h-.19v-.58l0-.62-.49,1.2h-.16l-.48-1.2v1.2h-.19V9.91Z"/></svg>