<svg id="Layer_1" data-name="Layer 1" xmlns="http://www.w3.org/2000/svg" viewBox="0 0 105 24"><defs><style>.cls-1{fill:#ec1c24;}.cls-2{fill:#fff;}</style></defs><path class="cls-1" d="M-6.12-23.6H111.12a0,0,0,0,1,0,0V22.55a2.95,2.95,0,0,1-2.95,2.95H-3.17a2.95,2.95,0,0,1-2.95-2.95V-23.6a0,0,0,0,1,0,0Z"/><path class="cls-2" d="M36.05,15.11a4.87,4.87,0,0,0-1.64-1.27,4.66,4.66,0,0,0-5.83,1.54,4.39,4.39,0,0,0-.64,1.28,4.74,4.74,0,0,0,.16,3.23,4.54,4.54,0,0,0,1.09,1.57,4.46,4.46,0,0,0,1.5,1,4.79,4.79,0,0,0,1.7.32,4.67,4.67,0,0,0,2.21-.55,4.42,4.42,0,0,0,1.74-1.59l-1.63-.13a3.53,3.53,0,0,1-.64,1.44,1.57,1.57,0,0,1-.79.54c-.1,0-.2,0-.3,0a1.46,1.46,0,0,1-.74-.19,2.68,2.68,0,0,1-.62-.49,4.52,4.52,0,0,1-.49-.61,6.9,6.9,0,0,1-.87-2A8.56,8.56,0,0,1,30,17h7A4.5,4.5,0,0,0,36.05,15.11ZM30,16.8a5.49,5.49,0,0,1,.3-1.71,2.8,2.8,0,0,1,.57-1,1.55,1.55,0,0,1,.58-.4l.41-.07a1.72,1.72,0,0,1,1.08.43,4.18,4.18,0,0,1,1,1.22,7.31,7.31,0,0,1,.61,1.52Z"/><path class="cls-2" d="M45,22.2a2.18,2.18,0,0,1-.26-1.2V16.08a.37.37,0,0,1,0-.11,3.12,3.12,0,0,0-.19-.71,2.09,2.09,0,0,0-.21-.37l0-.07a2.69,2.69,0,0,0-.3-.37l-.05,0-.22-.2a3.46,3.46,0,0,0-1-.58l-.06,0a3.59,3.59,0,0,0-1.22-.2,3.52,3.52,0,0,0-1.93.53,3,3,0,0,0-1.22,1.43l1.27.48,0-.27a4.66,4.66,0,0,1,.16-.65,3.22,3.22,0,0,1,.32-.71,1.34,1.34,0,0,1,.52-.51,4,4,0,0,1,.5-.08,2.4,2.4,0,0,1,.87.14.89.89,0,0,1,.51.48,2.46,2.46,0,0,1,.17,1.06v1.62a11.39,11.39,0,0,0-2.32.52,6,6,0,0,0-2,1,2.75,2.75,0,0,0-1,1.88,2.81,2.81,0,0,0,0,.29A1.86,1.86,0,0,0,38,22.21a2.81,2.81,0,0,0,1.67.44,7.62,7.62,0,0,0,1.41-.15A12.51,12.51,0,0,0,42.88,22a1.3,1.3,0,0,0,.47.46,1.28,1.28,0,0,0,.64.17h1.52v-.06l-.08,0A.83.83,0,0,1,45,22.2Zm-3.52,0a2.45,2.45,0,0,1-.46,0c-.85,0-1.31-.49-1.37-1.49,0-.14,0-.27,0-.39a3.37,3.37,0,0,1,.67-2.26,2.18,2.18,0,0,1,1.09-.73c.52-.11.94-.19,1.26-.23v4.2a1.3,1.3,0,0,0,.09.49A10,10,0,0,1,41.51,22.19Z"/><path class="cls-2" d="M51,13.67q-1.44.84-2.14,4V13.4l0,.07a1.23,1.23,0,0,1-.52.41,4.16,4.16,0,0,1-1.51.34l-.54,0v.09h0a.32.32,0,0,1,.18.12A2.43,2.43,0,0,1,46.77,16v5.3a2,2,0,0,1-.29,1,.7.7,0,0,1-.38.3l-.06,0v.06h3.54v-.06l-.06,0a.73.73,0,0,1-.38-.3,2,2,0,0,1-.3-1V19a13.06,13.06,0,0,1,.55-2.49A8,8,0,0,1,50,15a1.2,1.2,0,0,1,1.05-.6l.21,0a2.22,2.22,0,0,1,.6.19,3,3,0,0,1,.43.27l.16.12.56-1.34A2.7,2.7,0,0,0,52,13.39,1.9,1.9,0,0,0,51,13.67Z"/><rect class="cls-2" x="61.47" y="9.97" width="1.93" height="1.93" transform="translate(10.55 47.33) rotate(-44.99)"/><path class="cls-2" d="M64.13,22.5a.89.89,0,0,1-.21-.22,1.18,1.18,0,0,1-.18-.39,2.8,2.8,0,0,1-.11-.61V13.42l-.05.07a.6.6,0,0,1-.16.18,1.4,1.4,0,0,1-.36.23,2.58,2.58,0,0,1-.6.21,6,6,0,0,1-.91.13H61v.09h0l.08,0a.47.47,0,0,1,.11.1l.11.17a1.36,1.36,0,0,1,.11.29,3.71,3.71,0,0,1,.07.44,5.21,5.21,0,0,1,0,.6v5.3a2.51,2.51,0,0,1-.1.62,1.42,1.42,0,0,1-.19.39,1.37,1.37,0,0,1-.2.21l-.17.09h-.07v.07h3.55V22.6H64.3Z"/><path class="cls-2" d="M82,22.51a.69.69,0,0,1-.21-.21,1.41,1.41,0,0,1-.19-.39,2.91,2.91,0,0,1-.11-.61V16.86a3.34,3.34,0,0,0-2-3.06l-.07,0a4.35,4.35,0,0,0-1.5-.32h0a4.67,4.67,0,0,0-3,1.09,5.5,5.5,0,0,0-.73.72,3.21,3.21,0,0,0-1.6-1.46,4.5,4.5,0,0,0-1.57-.35h0a4.67,4.67,0,0,0-3,1.09l-.35.31V13.44l0,.08a.79.79,0,0,1-.16.18,1.89,1.89,0,0,1-.36.22,3,3,0,0,1-.6.21,4.31,4.31,0,0,1-.91.13l-.54,0v.09h0l.08,0,.1.09a.7.7,0,0,1,.12.18,1.79,1.79,0,0,1,.11.29,3.51,3.51,0,0,1,.07.43,5.4,5.4,0,0,1,0,.61v5.3a3,3,0,0,1-.1.61,1.41,1.41,0,0,1-.19.39.69.69,0,0,1-.21.21.47.47,0,0,1-.17.09l-.06,0v.06h3.54v-.06l-.06,0a.69.69,0,0,1-.38-.3,2,2,0,0,1-.3-1V15.16a4.85,4.85,0,0,1,2.48-1.42,3.62,3.62,0,0,1,.55-.05,1.57,1.57,0,0,1,.85.21,1.55,1.55,0,0,1,.61.66,3.25,3.25,0,0,1,.28.83,5.86,5.86,0,0,1,.09.72V21.3a2.91,2.91,0,0,1-.11.61,1.41,1.41,0,0,1-.19.39.69.69,0,0,1-.21.21.44.44,0,0,1-.16.09l-.07,0v.06h3.54v-.06l-.06,0a.47.47,0,0,1-.17-.09.69.69,0,0,1-.21-.21,1.18,1.18,0,0,1-.18-.39,2.38,2.38,0,0,1-.11-.61V16.86a3.31,3.31,0,0,0-.3-1.39,4.82,4.82,0,0,1,2.75-1.73h0a3.62,3.62,0,0,1,.55-.05,1.57,1.57,0,0,1,.85.21,1.53,1.53,0,0,1,.6.66,2.94,2.94,0,0,1,.29.83,4.26,4.26,0,0,1,.08.72V21.3a3,3,0,0,1-.1.61,1.41,1.41,0,0,1-.19.39.69.69,0,0,1-.21.21.4.4,0,0,1-.17.09l-.06,0v.06h3.55v-.06l-.07,0A.4.4,0,0,1,82,22.51Z"/><path class="cls-2" d="M91,22.56a.85.85,0,0,1-.41-.36,2.27,2.27,0,0,1-.26-1.2V16.08a.37.37,0,0,1,0-.11,2.67,2.67,0,0,0-.19-.71,2,2,0,0,0-.2-.37l0-.07a2.69,2.69,0,0,0-.3-.37l-.05,0-.22-.2a3.22,3.22,0,0,0-1-.58l-.05,0A3.69,3.69,0,0,0,87,13.4a3.52,3.52,0,0,0-1.93.53,2.94,2.94,0,0,0-1.21,1.43l1.27.48,0-.27c0-.18.09-.4.16-.65a3.77,3.77,0,0,1,.32-.71,1.34,1.34,0,0,1,.52-.51,3.89,3.89,0,0,1,.51-.08,2.38,2.38,0,0,1,.86.14.94.94,0,0,1,.52.48,2.62,2.62,0,0,1,.17,1.06v1.62a11.33,11.33,0,0,0-2.33.52,6.13,6.13,0,0,0-2,1,2.79,2.79,0,0,0-1,1.88c0,.1,0,.19,0,.29a1.86,1.86,0,0,0,.68,1.57,2.84,2.84,0,0,0,1.68.44,7.52,7.52,0,0,0,1.4-.15A12.15,12.15,0,0,0,88.39,22a1.38,1.38,0,0,0,.47.46,1.31,1.31,0,0,0,.65.17H91v-.06ZM87,22.19a2.53,2.53,0,0,1-.46,0c-.86,0-1.32-.49-1.38-1.49,0-.14,0-.27,0-.39a3.37,3.37,0,0,1,.67-2.26,2.2,2.2,0,0,1,1.1-.73c.51-.11.93-.19,1.26-.23v4.2a1.3,1.3,0,0,0,.09.49A10.46,10.46,0,0,1,87,22.19Z"/><path class="cls-2" d="M60.59,13.91v-.83h-3.4V7.92a2,2,0,0,1-.95.43,4.67,4.67,0,0,1-.52.08,3.21,3.21,0,0,0-.43.07h-.08l-.05,0-.07,0v.56c0,1.72,0,3.44,0,4H53.56v.83H55.1v5.54c0,.09,0,.18,0,.27s0,.19,0,.26a3.18,3.18,0,0,0,.67,1.6,3,3,0,0,0,1.42,1,2.89,2.89,0,0,0,2.29-.25l-.74-.8v.1a1.12,1.12,0,0,1-.06.23,1.71,1.71,0,0,1-.16.29.82.82,0,0,1-.25.24.7.7,0,0,1-.39.09c-.29-.05-.5-.54-.6-1.46-.05-.53-.08-1-.08-1.52V13.91Z"/><path class="cls-2" d="M55.06,8.55l-.32.11-.1,0-.11,0-.31.12-.3.1-.1,0-.35.13c-.93.34-1.83.68-2.73.92a16.56,16.56,0,0,1-9.53-.28,20.21,20.21,0,0,0,2-1.31A9.52,9.52,0,0,0,45,6.63a3.87,3.87,0,0,0,.86-2.28V4.26a3.24,3.24,0,0,0-.65-1.9,3.08,3.08,0,0,0-3.4-.91,3.15,3.15,0,0,0-1.35,1,3.33,3.33,0,0,0-1.36-1,3.1,3.1,0,0,0-1.88-.06,2.93,2.93,0,0,0-1.51,1,3.16,3.16,0,0,0-.64,1.91v.07A4.05,4.05,0,0,0,36,6.65a10.32,10.32,0,0,0,1.82,1.79A16.2,16.2,0,0,0,39.9,9.8a7.24,7.24,0,0,1-2,.51,9.31,9.31,0,0,1-2.73-.1,6.82,6.82,0,0,1-.93-.18c-.31-.08-.62-.16-.93-.26s-.6-.19-.91-.31-.6-.22-.89-.33l-.82-.34-.08,0c-.28-.1-1.86-.79-1.93-.82s-.17-.07-.31-.14-.49-.2-.72-.32a1,1,0,0,0-.24-.08,1.94,1.94,0,0,0-.34,0H23.87v.08h.07a.83.83,0,0,1,.38.32,1.94,1.94,0,0,1,.28,1v5.84H16.78V8.77a2,2,0,0,1,.3-1,.75.75,0,0,1,.38-.31h.06V7.38H14v.08h.07a.76.76,0,0,1,.39.32,2.05,2.05,0,0,1,.27,1V21.26a1.83,1.83,0,0,1-.29,1,.76.76,0,0,1-.38.31H14v.08h3.54v-.08h-.06a.76.76,0,0,1-.38-.31,2,2,0,0,1-.3-1V15.45H24.6v5.81a1.83,1.83,0,0,1-.29,1,.76.76,0,0,1-.38.31h-.06v.08h3.54v-.08h-.06a.39.39,0,0,1-.17-.1.6.6,0,0,1-.21-.21,1,1,0,0,1-.19-.39,2.3,2.3,0,0,1-.11-.61V8.77a2.47,2.47,0,0,1,.11-.61,1.18,1.18,0,0,0,.07-.2.27.27,0,0,1,.3-.19.65.65,0,0,1,.22.11l.39.19a3.18,3.18,0,0,0,.37.18l.31.16.15.07.09,0a2,2,0,0,0,.35.14c.28.13.56.26.85.37l.05,0,.81.35.07,0,.91.36.91.33.94.29,1,.24a4.65,4.65,0,0,0,.56.1,9,9,0,0,0,2.85.08,7.93,7.93,0,0,0,2.63-.73,17.19,17.19,0,0,0,5.91,1,16.21,16.21,0,0,0,4.4-.59c.9-.24,1.79-.56,2.66-.87l.13,0,1-.37.44-.15V8.55l.07,0ZM40.51,3.4s0,0,0,0a1.36,1.36,0,0,1,.19.44.18.18,0,0,1-.06.14.23.23,0,0,1-.38-.15A1.22,1.22,0,0,1,40.51,3.4Zm0,6.1a10,10,0,0,1-.91-.5l-.87-.55L38.17,8a9.53,9.53,0,0,1-1-.83,4.89,4.89,0,0,1-.39-.4l-.33-.41a3.26,3.26,0,0,1-.72-1.91V4.41a2.65,2.65,0,0,1,.3-1.22,2.21,2.21,0,0,1,.61-.72,2.8,2.8,0,0,1,.41-.25l.4-.14.09,0,.23,0a1.42,1.42,0,0,1,.29,0,3,3,0,0,1,.72.09l.18.06a1.28,1.28,0,0,1,.27.11l.14.09a2.34,2.34,0,0,1,.59.49l.18.22-.3.49,0,.08a.69.69,0,0,0-.06.13.85.85,0,0,0,0,.23,1.68,1.68,0,0,0,0,.2v0a1,1,0,0,0,.09.17.47.47,0,0,0,.09.1.69.69,0,0,0,.53.23A.75.75,0,0,0,41.25,4a1.62,1.62,0,0,0-.31-.75l-.06-.08a.35.35,0,0,1-.06-.09A1.41,1.41,0,0,1,41,2.84a2.45,2.45,0,0,1,.62-.52A2.19,2.19,0,0,1,42,2.15l.22-.07A3.1,3.1,0,0,1,42.64,2a3.47,3.47,0,0,1,.57,0,2.84,2.84,0,0,1,.31.06l.13.06a.94.94,0,0,1,.22.07,2.18,2.18,0,0,1,.61.41l.07.08.06,0,.11.13a2.25,2.25,0,0,1,.37.7,2.29,2.29,0,0,1,.09.31,2.09,2.09,0,0,1,.06.53v.07a3,3,0,0,1-.1.7,3.25,3.25,0,0,1-.44,1,1.44,1.44,0,0,1-.18.25A8.43,8.43,0,0,1,42.85,8,16,16,0,0,1,40.52,9.5Z"/><path class="cls-2" d="M88,10.14h-.47v1.29h-.18V10.14h-.47V10H88Z"/><path class="cls-2" d="M88.45,10l.47,1.17L89.38,10h.25v1.44h-.19v-.56l0-.61L89,11.43h-.15l-.47-1.16,0,.6v.56H88.2V10Z"/></svg>