<svg id="Layer_1" data-name="Layer 1" xmlns="http://www.w3.org/2000/svg" viewBox="0 0 105 35"><defs><style>.cls-1{fill:#ec1c24;}.cls-2{fill:#fff;}</style></defs><path class="cls-1" d="M-6.12-7H111.12a0,0,0,0,1,0,0V39.1A2.95,2.95,0,0,1,108.17,42H-3.17A2.95,2.95,0,0,1-6.12,39.1V-7a0,0,0,0,1,0,0Z"/><path class="cls-2" d="M30.83,21.6a6.57,6.57,0,0,0-2.16-1.68,6.12,6.12,0,0,0-2.66-.6,6.25,6.25,0,0,0-1.65.23A6.08,6.08,0,0,0,21,22a6.21,6.21,0,0,0-.84,1.69,6.18,6.18,0,0,0,.21,4.25,6.16,6.16,0,0,0,3.42,3.34,6.17,6.17,0,0,0,2.23.42,6.27,6.27,0,0,0,2.92-.72,5.9,5.9,0,0,0,2.29-2.1l-2.15-.17a4.57,4.57,0,0,1-.84,1.89,2,2,0,0,1-1,.71,2.73,2.73,0,0,1-.4,0,1.83,1.83,0,0,1-1-.26,3.36,3.36,0,0,1-.82-.64,5.29,5.29,0,0,1-.64-.81A8.88,8.88,0,0,1,23.2,27a11.28,11.28,0,0,1-.38-2.85H32A5.9,5.9,0,0,0,30.83,21.6Zm-8,2.22a7.09,7.09,0,0,1,.39-2.25,3.58,3.58,0,0,1,.76-1.3,1.84,1.84,0,0,1,.76-.53l.54-.09a2.28,2.28,0,0,1,1.43.57A5.42,5.42,0,0,1,28,21.82a9.31,9.31,0,0,1,.81,2Z"/><path class="cls-2" d="M42.65,30.93a2.91,2.91,0,0,1-.34-1.57V22.88a.76.76,0,0,1,0-.15,3.47,3.47,0,0,0-.25-.93,3.17,3.17,0,0,0-.27-.5l-.05-.08a3.17,3.17,0,0,0-.4-.49.13.13,0,0,0-.06-.07L41,20.4a4.52,4.52,0,0,0-1.34-.77l-.07,0A4.92,4.92,0,0,0,38,19.34a4.7,4.7,0,0,0-2.54.71,3.89,3.89,0,0,0-1.6,1.88l1.67.63.07-.36a4.72,4.72,0,0,1,.21-.85,4.16,4.16,0,0,1,.42-.94,1.75,1.75,0,0,1,.68-.67,4.92,4.92,0,0,1,.67-.1,3.34,3.34,0,0,1,1.14.17,1.19,1.19,0,0,1,.67.65,3.3,3.3,0,0,1,.23,1.39V24a14.69,14.69,0,0,0-3.07.67A8,8,0,0,0,33.91,26a3.6,3.6,0,0,0-1.37,2.47c0,.13,0,.26,0,.38A2.47,2.47,0,0,0,33.42,31a3.67,3.67,0,0,0,2.21.58,9.19,9.19,0,0,0,1.84-.2,13.36,13.36,0,0,0,2.35-.65,1.73,1.73,0,0,0,.62.61,1.67,1.67,0,0,0,.85.23h2v-.08l-.1,0A1.08,1.08,0,0,1,42.65,30.93Zm-4.63,0a4.28,4.28,0,0,1-.6.05c-1.13,0-1.73-.65-1.81-2,0-.18,0-.36,0-.52a4.43,4.43,0,0,1,.89-3,2.85,2.85,0,0,1,1.44-1,16.35,16.35,0,0,1,1.66-.29V29.8a1.61,1.61,0,0,0,.12.63A12.74,12.74,0,0,1,38,30.93Z"/><path class="cls-2" d="M50.49,19.69c-1.26.75-2.19,2.53-2.81,5.34V19.35l0,.09a1.63,1.63,0,0,1-.69.53,5.45,5.45,0,0,1-2,.46l-.71,0v.12h0a.48.48,0,0,1,.24.16,3.2,3.2,0,0,1,.43,2v7A2.63,2.63,0,0,1,44.57,31a.89.89,0,0,1-.5.39l-.09,0v.08h4.68v-.08l-.09,0a.92.92,0,0,1-.5-.39,2.73,2.73,0,0,1-.39-1.33v-3a18.31,18.31,0,0,1,.72-3.29,10.22,10.22,0,0,1,.86-2,1.75,1.75,0,0,1,.74-.66,1.86,1.86,0,0,1,.65-.14,1.24,1.24,0,0,1,.27,0,2.64,2.64,0,0,1,.78.25,5.16,5.16,0,0,1,.58.35l.21.17.73-1.77a3.38,3.38,0,0,0-1.4-.32A2.63,2.63,0,0,0,50.49,19.69Z"/><rect class="cls-2" x="64.31" y="14.82" width="2.54" height="2.54" transform="translate(7.82 51.08) rotate(-44.99)"/><path class="cls-2" d="M67.82,31.33a1,1,0,0,1-.27-.28,2,2,0,0,1-.24-.51,3.39,3.39,0,0,1-.14-.82V19.37l-.07.09a.77.77,0,0,1-.22.24,1.83,1.83,0,0,1-.46.3,4,4,0,0,1-.79.28,8.22,8.22,0,0,1-1.2.17l-.71,0v.12h0a.34.34,0,0,1,.11.05.69.69,0,0,1,.14.12,1.14,1.14,0,0,1,.15.23,1.92,1.92,0,0,1,.14.39,4.67,4.67,0,0,1,.1.57,6.17,6.17,0,0,1,0,.8v7a3.85,3.85,0,0,1-.14.81,1.51,1.51,0,0,1-.25.51,1,1,0,0,1-.27.28,1,1,0,0,1-.22.12l-.09,0v.09h4.68v-.09l-.1,0A1,1,0,0,1,67.82,31.33Z"/><path class="cls-2" d="M91.4,31.35a1.46,1.46,0,0,1-.27-.28,1.74,1.74,0,0,1-.24-.51,3.17,3.17,0,0,1-.15-.81V23.9a4.38,4.38,0,0,0-2.64-4l-.09,0a5.32,5.32,0,0,0-2-.41H86a6.11,6.11,0,0,0-3.9,1.42,8.7,8.7,0,0,0-1,1A4.32,4.32,0,0,0,79,19.87a5.48,5.48,0,0,0-2.07-.45h-.06A6.1,6.1,0,0,0,73,20.84c-.15.13-.31.27-.46.42V19.4l0,.1a1.4,1.4,0,0,1-.22.24,2.57,2.57,0,0,1-.47.3,4.24,4.24,0,0,1-.79.27,6.9,6.9,0,0,1-1.2.17c-.22,0-.45,0-.71,0v.12h0a.26.26,0,0,1,.1,0,.79.79,0,0,1,.14.13.91.91,0,0,1,.15.23,2,2,0,0,1,.14.38,3.7,3.7,0,0,1,.1.57,6.27,6.27,0,0,1,0,.8v7a3.39,3.39,0,0,1-.14.82,2,2,0,0,1-.24.51,1.23,1.23,0,0,1-.28.28.89.89,0,0,1-.22.11l-.09,0v.08h4.68v-.08l-.09,0a1,1,0,0,1-.5-.4,2.61,2.61,0,0,1-.39-1.32v-8.1A6.24,6.24,0,0,1,75.8,19.8a3.69,3.69,0,0,1,.72-.08,2.14,2.14,0,0,1,1.12.28,2.16,2.16,0,0,1,.8.87,4.08,4.08,0,0,1,.37,1.1,5.33,5.33,0,0,1,.11,1v6.83a3.21,3.21,0,0,1-.14.81,1.74,1.74,0,0,1-.24.51.93.93,0,0,1-.28.28.71.71,0,0,1-.21.11l-.09,0v.09h4.66v-.09l-.08,0a.56.56,0,0,1-.22-.11,1,1,0,0,1-.27-.28,1.51,1.51,0,0,1-.25-.51,3.21,3.21,0,0,1-.14-.81V23.9a4.35,4.35,0,0,0-.4-1.82,6.29,6.29,0,0,1,3.62-2.28h0a3.69,3.69,0,0,1,.72-.08,2.11,2.11,0,0,1,1.12.28,2.23,2.23,0,0,1,.8.87A3.76,3.76,0,0,1,87.9,22a5.33,5.33,0,0,1,.11,1v6.83a3.21,3.21,0,0,1-.14.81,1.74,1.74,0,0,1-.24.51,1.21,1.21,0,0,1-.27.28.67.67,0,0,1-.23.11l-.09,0v.09h4.68v-.09l-.09,0A.67.67,0,0,1,91.4,31.35Z"/><path class="cls-2" d="M103.15,31.41a1.11,1.11,0,0,1-.53-.48,2.91,2.91,0,0,1-.34-1.57V22.88a.77.77,0,0,1,0-.15,3.14,3.14,0,0,0-.25-.93,2.41,2.41,0,0,0-.26-.5l0-.08a3.17,3.17,0,0,0-.4-.49l-.06-.07L101,20.4a4.52,4.52,0,0,0-1.34-.77l-.07,0a4.82,4.82,0,0,0-1.61-.27,4.75,4.75,0,0,0-2.55.71,3.87,3.87,0,0,0-1.59,1.88l1.67.63.06-.36a7.4,7.4,0,0,1,.21-.85,5.28,5.28,0,0,1,.42-.94,1.82,1.82,0,0,1,.68-.67,5.16,5.16,0,0,1,.67-.1,3.44,3.44,0,0,1,1.15.17,1.22,1.22,0,0,1,.67.65,3.32,3.32,0,0,1,.22,1.39V24a14.6,14.6,0,0,0-3.06.67A8.19,8.19,0,0,0,93.87,26a3.59,3.59,0,0,0-1.36,2.47c0,.13,0,.26,0,.38a2.44,2.44,0,0,0,.9,2.07,3.66,3.66,0,0,0,2.2.58,9.28,9.28,0,0,0,1.85-.2,13.61,13.61,0,0,0,2.35-.65,1.72,1.72,0,0,0,1.47.84h2v-.08ZM98,30.93a4.3,4.3,0,0,1-.61.05c-1.12,0-1.72-.65-1.81-2,0-.18,0-.36,0-.52a4.43,4.43,0,0,1,.88-3,2.88,2.88,0,0,1,1.45-1,16.23,16.23,0,0,1,1.65-.29V29.8a1.61,1.61,0,0,0,.12.63A12.56,12.56,0,0,1,98,30.93Z"/><path class="cls-2" d="M63.16,20V18.93H58.68v-6.8a2.58,2.58,0,0,1-1.25.56,5.5,5.5,0,0,1-.69.11,5.62,5.62,0,0,0-.57.09h-.1s0,0-.06,0l-.09,0v.74c0,2.27,0,4.53,0,5.24h-2V20h2v7.29c0,.12,0,.25,0,.36s0,.25,0,.34a4.15,4.15,0,0,0,.88,2.11,4,4,0,0,0,1.87,1.25,3.8,3.8,0,0,0,3-.33l-1-1.05,0,.13c0,.07-.05.18-.08.3a1.58,1.58,0,0,1-.21.38,1.12,1.12,0,0,1-.33.32.85.85,0,0,1-.52.13c-.38-.08-.66-.71-.78-1.93-.07-.7-.11-1.37-.11-2V20Z"/><path class="cls-2" d="M55.87,13l-.42.14-.13.05-.15,0-.41.16a3,3,0,0,0-.39.14l-.13,0-.46.17c-1.22.46-2.42.9-3.6,1.22a21.91,21.91,0,0,1-12.55-.37,28.83,28.83,0,0,0,2.67-1.73,12.56,12.56,0,0,0,2.37-2.38,5.11,5.11,0,0,0,1.13-3V7.31A4.25,4.25,0,0,0,43,4.8a4,4,0,0,0-2-1.3,4,4,0,0,0-2.48.1,4.13,4.13,0,0,0-1.77,1.31A4.36,4.36,0,0,0,34.9,3.6a4.2,4.2,0,0,0-2.48-.09,3.86,3.86,0,0,0-2,1.3,4.13,4.13,0,0,0-.85,2.52v.09a5.24,5.24,0,0,0,1.12,3,12.82,12.82,0,0,0,2.4,2.36,20.54,20.54,0,0,0,2.8,1.79,9,9,0,0,1-2.65.67,12.77,12.77,0,0,1-3.59-.12c-.37-.05-.76-.13-1.23-.24s-.81-.22-1.23-.35-.79-.25-1.2-.4l-1.18-.45-1.07-.44-.11,0c-.36-.14-2.44-1-2.53-1.08L20.69,12a9.88,9.88,0,0,1-.94-.41,1.73,1.73,0,0,0-.32-.11,3.39,3.39,0,0,0-.45,0h-4.2v.1h.09a1.17,1.17,0,0,1,.5.42,2.58,2.58,0,0,1,.37,1.31V21H5.44V13.25a2.57,2.57,0,0,1,.39-1.31,1,1,0,0,1,.5-.41h.09v-.1H1.75v.1h.09a1.1,1.1,0,0,1,.52.42,2.82,2.82,0,0,1,.35,1.31V29.7A2.47,2.47,0,0,1,2.33,31a.93.93,0,0,1-.51.4l-.07,0v.1H6.42v-.1l-.09,0a.91.91,0,0,1-.5-.4,2.65,2.65,0,0,1-.39-1.32V22.05h10.3V29.7A2.47,2.47,0,0,1,15.36,31a.93.93,0,0,1-.51.4l-.07,0v.1h4.67v-.1l-.09,0a.48.48,0,0,1-.22-.12.83.83,0,0,1-.28-.28,1.57,1.57,0,0,1-.25-.52,2.68,2.68,0,0,1-.14-.8V13.25a2.81,2.81,0,0,1,.14-.8c0-.09.06-.18.1-.27a.41.41,0,0,1,.14-.2.39.39,0,0,1,.25-.05.66.66,0,0,1,.29.14c.17.08.35.16.51.25s.32.16.48.24l.42.22.19.08.13.06.46.19c.36.16.73.33,1.11.48l.07,0,1.07.46.09,0c.4.16.8.33,1.2.48l1.2.43c.39.14.81.27,1.24.38s.83.22,1.25.32l.73.14a12.48,12.48,0,0,0,3.76.1,10.35,10.35,0,0,0,3.46-1,22.7,22.7,0,0,0,7.79,1.37,21.64,21.64,0,0,0,5.8-.78c1.19-.32,2.36-.73,3.5-1.15l.18-.07,1.31-.48c.2-.06.38-.12.58-.2V13l.09,0ZM36.7,6.17l0,0a1.7,1.7,0,0,1,.26.59A.29.29,0,0,1,36.9,7a.31.31,0,0,1-.51-.21A1.83,1.83,0,0,1,36.7,6.17Zm0,8q-.62-.32-1.2-.66c-.38-.23-.76-.48-1.14-.73s-.51-.36-.75-.55a13.72,13.72,0,0,1-1.25-1.09c-.19-.17-.35-.36-.52-.54s-.29-.36-.43-.53a4.31,4.31,0,0,1-1-2.52V7.5a3.45,3.45,0,0,1,.39-1.61A2.85,2.85,0,0,1,31.68,5a2.62,2.62,0,0,1,.53-.33,2.76,2.76,0,0,1,.53-.19.35.35,0,0,0,.11,0l.31-.05a2.42,2.42,0,0,1,.38,0,3.91,3.91,0,0,1,1,.11l.23.08a2.39,2.39,0,0,1,.37.15l.18.11a3.24,3.24,0,0,1,.77.65,3.36,3.36,0,0,1,.24.29l-.39.65a.42.42,0,0,0,0,.1.91.91,0,0,0-.08.18.71.71,0,0,0-.05.29,1.39,1.39,0,0,0,0,.27l0,.06a1.27,1.27,0,0,0,.12.23l.11.14a.93.93,0,0,0,.7.29,1,1,0,0,0,1-1,2.2,2.2,0,0,0-.41-1l-.08-.11a1.25,1.25,0,0,0-.09-.12c.08-.11.17-.21.25-.3a3.19,3.19,0,0,1,.82-.68,2.9,2.9,0,0,1,.5-.23A1,1,0,0,1,39,4.43a3.41,3.41,0,0,1,.54-.1,3.76,3.76,0,0,1,.76,0,3,3,0,0,1,.41.08l.16.07a1,1,0,0,1,.3.1,3.18,3.18,0,0,1,.81.54l.09.1.07.06a2.09,2.09,0,0,1,.14.17,2.77,2.77,0,0,1,.5.92,4,4,0,0,1,.11.41,2.87,2.87,0,0,1,.08.7v.08a3.86,3.86,0,0,1-.13.93,4.18,4.18,0,0,1-.58,1.26l-.23.33a11.41,11.41,0,0,1-2.21,2.17A22.41,22.41,0,0,1,36.71,14.21Z"/><path class="cls-2" d="M99.26,15.05h-.61v1.69H98.4V15.05h-.61v-.2h1.47Z"/><path class="cls-2" d="M99.86,14.85l.62,1.55.62-1.55h.32v1.89h-.25V16l0-.8-.63,1.53h-.19l-.62-1.53,0,.8v.73h-.25V14.85Z"/></svg>